<svg xmlns="http://www.w3.org/2000/svg" width="2330" height="1000" viewBox="0 0 2330 1000" version="1.1"><path d="M 2028.760 313.491 C 2025.603 314.293, 2021.103 315.897, 2018.760 317.056 C 2013.897 319.460, 2001.997 327.228, 2002.006 327.992 C 2002.019 329.069, 2016.292 346, 2017.188 346 C 2017.708 346, 2019.566 344.928, 2021.317 343.618 C 2026.844 339.483, 2031.195 337.769, 2036.173 337.769 C 2048.836 337.769, 2052.768 350.141, 2044.881 365.168 C 2040.381 373.742, 2021.192 392.912, 2000.500 409.506 C 1991.700 416.563, 1984.117 422.667, 1983.649 423.070 C 1983.180 423.473, 1982.170 426.885, 1981.402 430.651 C 1980.635 434.418, 1979.771 438.517, 1979.482 439.760 L 1978.957 442.021 2023.215 441.760 L 2067.474 441.500 2069.683 430 C 2070.898 423.675, 2071.917 417.712, 2071.946 416.750 C 2071.996 415.144, 2070.462 415, 2053.261 415 L 2034.521 415 2048.790 400.963 C 2073.154 376.995, 2080.235 364.872, 2080.165 347.247 C 2080.129 337.835, 2077.919 331.326, 2072.780 325.487 C 2065.229 316.909, 2056.637 313.151, 2043 312.462 C 2037.488 312.183, 2032.482 312.545, 2028.760 313.491 M 2120.645 352.422 L 2092.168 389.844 2090.084 400.061 C 2088.938 405.681, 2088 410.891, 2088 411.639 C 2088 412.751, 2092.660 413, 2113.500 413 C 2133.236 413, 2138.999 413.283, 2138.995 414.250 C 2138.992 414.938, 2137.867 421.331, 2136.495 428.458 C 2135.123 435.584, 2134 441.559, 2134 441.734 C 2134 441.910, 2140.617 441.929, 2148.705 441.777 L 2163.410 441.500 2165.203 432.500 C 2166.189 427.550, 2167.478 421.137, 2168.069 418.250 L 2169.142 413 2176 413 L 2182.858 413 2183.940 407.750 C 2184.535 404.863, 2185.639 399.238, 2186.394 395.250 L 2187.768 388 2180.884 388 C 2177.098 388, 2174 387.869, 2174 387.710 C 2174 387.550, 2177.150 371.705, 2181 352.500 C 2184.850 333.295, 2188 317, 2188 316.290 C 2188 315.281, 2183.771 315, 2168.562 315 L 2149.123 315 2120.645 352.422 M 2148 351.740 C 2144.975 357.042, 2138.128 367.369, 2132.784 374.690 L 2123.069 388 2133.861 388 L 2144.654 388 2145.871 381.250 C 2146.540 377.538, 2148.673 367.617, 2150.612 359.205 C 2152.551 350.793, 2153.994 343.503, 2153.818 343.005 C 2153.643 342.507, 2151.025 346.438, 2148 351.740" stroke="none" fill="#fafbfa" fill-rule="evenodd"/><path d="M 2101 197.630 C 2042.073 204.828, 1981.990 237.345, 1930.967 289.652 C 1872.118 349.981, 1830.472 420.685, 1808.540 497.500 L 1804.257 512.500 1803.507 506 C 1801.029 484.513, 1792.546 467.244, 1777.622 453.308 C 1763.452 440.074, 1747.309 433.823, 1727 433.707 C 1700.849 433.557, 1678.699 445.044, 1664.109 466.325 C 1648.917 488.483, 1644.902 522.013, 1654.039 550.428 C 1660.963 571.965, 1674.669 587.759, 1694.500 597.053 C 1706.367 602.615, 1715.711 604.364, 1730.383 603.767 C 1744.529 603.192, 1754.096 600.470, 1765.500 593.775 C 1774.327 588.593, 1786.375 576.602, 1791.901 567.500 C 1794.238 563.650, 1795.909 561.400, 1795.614 562.500 C 1794.033 568.390, 1793.054 601.808, 1794 617.554 C 1799.717 712.705, 1845.598 776.726, 1920.500 794.071 C 1932.088 796.755, 1964.605 797.865, 1978.341 796.046 C 2091.329 781.086, 2207.029 672.211, 2259.470 531.500 C 2277.044 484.346, 2284.996 441.978, 2284.999 395.494 C 2285.001 356.452, 2280.484 329.633, 2268.879 299.789 C 2251.031 253.891, 2216.669 219.569, 2174 205.021 C 2157.187 199.289, 2147.707 197.819, 2125.500 197.502 C 2113.950 197.337, 2102.925 197.394, 2101 197.630 M 2028.760 313.491 C 2025.603 314.293, 2021.103 315.897, 2018.760 317.056 C 2013.897 319.460, 2001.997 327.228, 2002.006 327.992 C 2002.019 329.069, 2016.292 346, 2017.188 346 C 2017.708 346, 2019.566 344.928, 2021.317 343.618 C 2026.844 339.483, 2031.195 337.769, 2036.173 337.769 C 2048.836 337.769, 2052.768 350.141, 2044.881 365.168 C 2040.381 373.742, 2021.192 392.912, 2000.500 409.506 C 1991.700 416.563, 1984.117 422.667, 1983.649 423.070 C 1983.180 423.473, 1982.170 426.885, 1981.402 430.651 C 1980.635 434.418, 1979.771 438.517, 1979.482 439.760 L 1978.957 442.021 2023.215 441.760 L 2067.474 441.500 2069.683 430 C 2070.898 423.675, 2071.917 417.712, 2071.946 416.750 C 2071.996 415.144, 2070.462 415, 2053.261 415 L 2034.521 415 2048.790 400.963 C 2073.154 376.995, 2080.235 364.872, 2080.165 347.247 C 2080.129 337.835, 2077.919 331.326, 2072.780 325.487 C 2065.229 316.909, 2056.637 313.151, 2043 312.462 C 2037.488 312.183, 2032.482 312.545, 2028.760 313.491 M 2120.645 352.422 L 2092.168 389.844 2090.084 400.061 C 2088.938 405.681, 2088 410.891, 2088 411.639 C 2088 412.751, 2092.660 413, 2113.500 413 C 2133.236 413, 2138.999 413.283, 2138.995 414.250 C 2138.992 414.938, 2137.867 421.331, 2136.495 428.458 C 2135.123 435.584, 2134 441.559, 2134 441.734 C 2134 441.910, 2140.617 441.929, 2148.705 441.777 L 2163.410 441.500 2165.203 432.500 C 2166.189 427.550, 2167.478 421.137, 2168.069 418.250 L 2169.142 413 2176 413 L 2182.858 413 2183.940 407.750 C 2184.535 404.863, 2185.639 399.238, 2186.394 395.250 L 2187.768 388 2180.884 388 C 2177.098 388, 2174 387.869, 2174 387.710 C 2174 387.550, 2177.150 371.705, 2181 352.500 C 2184.850 333.295, 2188 317, 2188 316.290 C 2188 315.281, 2183.771 315, 2168.562 315 L 2149.123 315 2120.645 352.422 M 2148 351.740 C 2144.975 357.042, 2138.128 367.369, 2132.784 374.690 L 2123.069 388 2133.861 388 L 2144.654 388 2145.871 381.250 C 2146.540 377.538, 2148.673 367.617, 2150.612 359.205 C 2152.551 350.793, 2153.994 343.503, 2153.818 343.005 C 2153.643 342.507, 2151.025 346.438, 2148 351.740 M 301.615 367.472 C 295.868 369.521, 290.216 375.534, 288.448 381.483 C 284.180 395.837, 294.818 409.298, 310.500 409.387 C 317.909 409.429, 323.118 407.713, 327.645 403.739 C 332.565 399.419, 335.004 394.113, 334.978 387.790 C 334.938 378.130, 328.920 369.791, 320.078 367.141 C 314.984 365.615, 306.394 365.769, 301.615 367.472 M 1373.150 407.889 L 1373.500 449.822 1369 446.353 C 1361.102 440.264, 1349.359 435.141, 1340.515 433.925 C 1302.946 428.763, 1269.897 458.843, 1263.923 503.635 C 1262.449 514.686, 1263.218 535.732, 1265.489 546.500 C 1273.115 582.657, 1296.511 604, 1328.520 604 C 1333.503 604, 1340.149 603.331, 1343.289 602.513 C 1350.959 600.515, 1361.420 595.135, 1367.927 589.840 C 1377.631 581.944, 1376.612 581.782, 1378.050 591.452 L 1379.322 600 1395.665 600 L 1412.008 600 1411.754 483.250 L 1411.500 366.500 1392.150 366.228 L 1372.800 365.956 1373.150 407.889 M 1468.615 367.472 C 1462.868 369.521, 1457.216 375.534, 1455.448 381.483 C 1451.180 395.837, 1461.818 409.298, 1477.500 409.387 C 1484.909 409.429, 1490.118 407.713, 1494.645 403.739 C 1499.565 399.419, 1502.004 394.113, 1501.978 387.790 C 1501.938 378.130, 1495.920 369.791, 1487.078 367.141 C 1481.984 365.615, 1473.394 365.769, 1468.615 367.472 M 49 491.481 L 49 600 66.565 600 L 84.130 600 83.742 534.750 C 83.426 481.725, 83.027 466.445, 81.614 453.194 C 80.658 444.225, 80.016 436.205, 80.188 435.372 C 80.359 434.539, 84.075 444.352, 88.445 457.179 C 92.814 470.005, 104.574 502.775, 114.579 530 L 132.768 579.500 144.634 579.765 L 156.500 580.030 165.676 554.765 C 170.723 540.869, 179.762 516, 185.764 499.500 C 191.765 483, 199.509 461.273, 202.972 451.218 C 206.436 441.163, 209.394 433.063, 209.545 433.218 C 209.697 433.373, 208.904 442.500, 207.784 453.500 C 206.042 470.614, 205.682 482.628, 205.290 536.750 L 204.833 600 222.917 600 L 241 600 241 491.500 L 241 383 219.098 383 L 197.196 383 196.201 385.750 C 183.715 420.263, 155.094 502.434, 151.531 514 C 148.904 522.525, 146.409 529.879, 145.985 530.342 C 145.562 530.805, 141.585 520.230, 137.146 506.842 C 132.708 493.454, 121 460.225, 111.129 433 L 93.183 383.500 71.091 383.231 L 49 382.962 49 491.481 M 1557.664 396.250 C 1557.356 398.038, 1556.321 407.898, 1555.362 418.163 L 1553.620 436.826 1550.685 437.413 C 1549.071 437.736, 1545.669 438.004, 1543.125 438.009 C 1540.581 438.013, 1536.138 438.301, 1533.250 438.648 L 1528 439.279 1528 453.639 L 1528 468 1539.399 468 L 1550.799 468 1551.225 513.250 C 1551.591 552.146, 1551.901 559.553, 1553.431 566 C 1558.216 586.165, 1568.878 597.868, 1586.693 602.508 C 1597.741 605.386, 1622.764 603.626, 1634.125 599.173 L 1636.750 598.145 1633.742 584.822 C 1632.088 577.495, 1630.400 571.128, 1629.992 570.674 C 1629.583 570.220, 1626.861 570.558, 1623.943 571.424 C 1611.923 574.994, 1600.104 572.395, 1595.269 565.118 C 1590.846 558.462, 1590.657 556.440, 1590.253 511.250 L 1589.867 468 1610.933 468 L 1632 468 1632 452.500 L 1632 437 1611 437 L 1590 437 1590 415 L 1590 393 1574.111 393 L 1558.223 393 1557.664 396.250 M 438 434.012 C 391.861 440.333, 362.620 482.086, 368.957 532.598 C 373.336 567.504, 392.015 591.373, 422.500 601.017 C 432.427 604.158, 452.780 604.917, 463.443 602.545 C 476.239 599.698, 487.280 594.440, 497.917 586.128 L 500.335 584.239 492.593 571.619 C 488.335 564.679, 484.673 559, 484.457 559 C 484.240 559, 480.984 560.991, 477.222 563.425 C 466.852 570.134, 459.460 572.288, 448.444 571.814 C 441.051 571.496, 438.333 570.908, 433.643 568.614 C 414.222 559.112, 404.170 532.365, 409.487 504.338 C 413.384 483.795, 426.686 469.195, 444.496 465.913 C 455.050 463.968, 464.114 466.302, 474.234 473.573 C 476.963 475.533, 479.310 476.994, 479.449 476.819 C 486.664 467.722, 497 452.442, 496.615 451.440 C 495.119 447.541, 478.177 438.273, 467.500 435.512 C 459.897 433.546, 446.410 432.860, 438 434.012 M 603.500 434.357 C 591.258 437.577, 580.403 445.474, 572.027 457.256 C 569.017 461.490, 566.268 464.627, 565.919 464.227 C 565.569 463.827, 564.713 457.538, 564.017 450.250 L 562.750 437 546.875 437 L 531 437 531 518.500 L 531 600 550.500 600 L 570 600 570 549.896 L 570 499.792 573.717 492.646 C 578.178 484.071, 587.472 474.367, 594.500 470.947 C 598.593 468.955, 601.041 468.513, 608 468.507 C 612.675 468.504, 618.339 468.884, 620.586 469.352 L 624.672 470.203 627.837 454.352 C 629.577 445.633, 631.001 438.009, 631.001 437.408 C 630.999 434.348, 611.684 432.205, 603.500 434.357 M 706.500 434.054 C 685.976 437.253, 668.156 448.128, 656.352 464.660 C 633.169 497.126, 635.083 548.800, 660.572 578.635 C 670.049 589.729, 686.245 599.212, 701.383 602.531 C 713 605.079, 730.702 604.217, 741.500 600.580 C 767.320 591.881, 785.272 571.647, 792.585 543 C 795.517 531.518, 795.311 504.607, 792.204 493.163 C 785.978 470.228, 771.949 451.919, 753.077 442.101 C 739.461 435.017, 720.900 431.810, 706.500 434.054 M 892 434.012 C 845.861 440.333, 816.620 482.086, 822.957 532.598 C 827.336 567.504, 846.015 591.373, 876.500 601.017 C 886.427 604.158, 906.780 604.917, 917.443 602.545 C 930.106 599.728, 942.234 593.971, 951.917 586.183 L 954.335 584.239 946.593 571.619 C 942.335 564.679, 938.673 559, 938.457 559 C 938.240 559, 934.984 560.991, 931.222 563.425 C 920.852 570.134, 913.460 572.288, 902.444 571.814 C 895.051 571.496, 892.333 570.908, 887.643 568.614 C 872.038 560.979, 862 541.558, 862 519 C 862 491.057, 876.499 469.967, 898.496 465.913 C 909.050 463.968, 918.114 466.302, 928.234 473.573 C 930.963 475.533, 933.310 476.994, 933.449 476.819 C 940.664 467.722, 951 452.442, 950.615 451.440 C 949.119 447.541, 932.177 438.273, 921.500 435.512 C 913.897 433.546, 900.410 432.860, 892 434.012 M 1057.500 434.357 C 1045.258 437.577, 1034.403 445.474, 1026.027 457.256 C 1023.017 461.490, 1020.268 464.627, 1019.919 464.227 C 1019.569 463.827, 1018.713 457.538, 1018.017 450.250 L 1016.750 437 1000.875 437 L 985 437 985 518.500 L 985 600 1004.500 600 L 1024 600 1024 549.896 L 1024 499.792 1027.717 492.646 C 1032.178 484.071, 1041.472 474.367, 1048.500 470.947 C 1052.593 468.955, 1055.041 468.513, 1062 468.507 C 1066.675 468.504, 1072.339 468.884, 1074.586 469.352 L 1078.672 470.203 1081.837 454.352 C 1083.577 445.633, 1085.001 438.009, 1085.001 437.408 C 1084.999 434.348, 1065.684 432.205, 1057.500 434.357 M 1157.500 434.433 C 1141.696 437.552, 1130.365 443.610, 1119 455.016 C 1101.338 472.741, 1092.744 497.123, 1094.333 525 C 1096.208 557.900, 1111.837 583.608, 1137.500 596.004 C 1150.775 602.416, 1156.179 603.486, 1175 603.428 C 1189.990 603.381, 1192.324 603.128, 1200.500 600.661 C 1210.317 597.698, 1227.771 589.396, 1229.220 587 C 1229.870 585.926, 1228.382 582.305, 1223.981 574.250 C 1220.601 568.063, 1217.458 563, 1216.997 563 C 1216.536 563, 1213.073 564.568, 1209.301 566.484 C 1188.059 577.276, 1164.588 576.245, 1148.807 563.828 C 1141.706 558.240, 1134.957 545.592, 1132.490 533.250 L 1131.841 530 1183.375 530 L 1234.909 530 1235.678 526.250 C 1237.016 519.723, 1236.362 496.053, 1234.627 488.219 C 1232.548 478.831, 1228.069 467.342, 1224.044 461.069 C 1219.372 453.788, 1208.474 443.987, 1200.927 440.279 C 1188.683 434.262, 1170.658 431.836, 1157.500 434.433 M 292 518.500 L 292 600 311.500 600 L 331 600 331 518.500 L 331 437 311.500 437 L 292 437 292 518.500 M 1459 518.500 L 1459 600 1478.500 600 L 1498 600 1498 518.500 L 1498 437 1478.500 437 L 1459 437 1459 518.500 M 1156.802 466.391 C 1153.669 467.680, 1149.619 469.978, 1147.802 471.499 C 1140.253 477.820, 1133.982 489.009, 1132.382 499.010 L 1131.744 503 1167.372 503 L 1203 503 1203 500.184 C 1203 484.382, 1194.161 469.628, 1182.266 465.575 C 1175.215 463.173, 1163.733 463.540, 1156.802 466.391 M 708.951 466.300 C 696.045 469.956, 686.977 480.757, 682.335 498 C 679.897 507.056, 679.887 530.884, 682.318 540 C 686.164 554.425, 693.382 564.373, 703.460 569.141 C 708.447 571.500, 710.819 571.999, 717.072 571.999 C 727.359 572, 732.885 569.927, 739.899 563.433 C 750.943 553.208, 755.469 538.598, 754.748 515.500 C 754.378 503.645, 753.898 500.291, 751.615 493.609 C 748.554 484.649, 743.243 476.050, 738.566 472.483 C 730.512 466.339, 718.018 463.731, 708.951 466.300 M 1717.951 466.300 C 1705.045 469.956, 1695.977 480.757, 1691.335 498 C 1688.897 507.056, 1688.887 530.884, 1691.318 540 C 1695.164 554.425, 1702.382 564.373, 1712.460 569.141 C 1717.447 571.500, 1719.819 571.999, 1726.072 571.999 C 1736.359 572, 1741.885 569.927, 1748.899 563.433 C 1759.943 553.208, 1764.469 538.598, 1763.748 515.500 C 1763.378 503.645, 1762.898 500.291, 1760.615 493.609 C 1757.554 484.649, 1752.243 476.050, 1747.566 472.483 C 1739.512 466.339, 1727.018 463.731, 1717.951 466.300 M 1329.698 467.387 C 1317.266 472.008, 1308.117 484.550, 1304.380 502.094 C 1302.427 511.260, 1303.017 533.478, 1305.450 542.415 C 1308.936 555.219, 1315.222 563.925, 1324.500 568.799 C 1328.859 571.089, 1330.721 571.431, 1339.018 571.463 C 1347.768 571.497, 1349.066 571.239, 1355.126 568.257 C 1358.751 566.473, 1364.261 562.570, 1367.371 559.582 L 1373.024 554.150 1372.762 516.366 L 1372.500 478.583 1367.500 474.784 C 1360.043 469.119, 1353.062 466.760, 1342.500 466.335 C 1336.397 466.090, 1332.276 466.429, 1329.698 467.387" stroke="none" fill="#78a854" fill-rule="evenodd"/></svg>